<svg xmlns="http://www.w3.org/2000/svg" xmlns:xlink="http://www.w3.org/1999/xlink" viewBox="0 0 225.72 225.72"><defs><style>.cls-1{fill:url(#linear-gradient);}.cls-2{fill:#424446;}.cls-3{fill:url(#linear-gradient-2);}.cls-4{font-size:85.52px;fill:#1e2022;font-family:MVBoli, MV Boli;}.cls-5{fill:none;stroke:#1e2022;stroke-miterlimit:10;}</style><linearGradient id="linear-gradient" y1="112.86" x2="225.72" y2="112.86" gradientUnits="userSpaceOnUse"><stop offset="0" stop-color="#fe8ec6"/><stop offset="0.91" stop-color="#fed0c7"/></linearGradient><linearGradient id="linear-gradient-2" x1="20.87" y1="112.86" x2="204.84" y2="112.86" xlink:href="#linear-gradient"/></defs><title>LW_Logo</title><g id="pink_outter_circle" data-name="pink outter circle"><circle class="cls-1" cx="112.86" cy="112.86" r="112.86"/></g><g id="black_circle" data-name="black circle"><circle class="cls-2" cx="112.86" cy="112.86" r="96.17"/></g><g id="pink_inner_circle" data-name="pink inner circle"><circle class="cls-3" cx="112.86" cy="112.86" r="91.99"/></g><g id="LW"><text class="cls-4" transform="translate(42.01 154.31)">LW</text></g><g id="squiggly_thing" data-name="squiggly thing"><path class="cls-5" d="M421.93,167.76s2.3-8.35,11.95-6.62,23.61,10.37,23.61,10.37l5.33,2.88s11.23,5.61,17,0-3.89-7.49-10.65-4.89-30.09,13.1-30.09,13.1-7.2,2.45-8.64-3.6,7.63-4.17,11.23-.58,16.7,9.36,16.7,9.36a12.11,12.11,0,0,0,7.49-.72" transform="translate(-338.89 -115.82)"/></g></svg>